Coordinates
version=1
nRows=8
nColumns=33
inDegrees=yes

Units are S.I. units (second, meters, Newtons, ...)
Angles are in degrees.

endheader
time	ground_thorax_rot_x	ground_thorax_rot_y	ground_thorax_rot_z	ground_thorax_tx	ground_thorax_ty	ground_thorax_tz	clav_prot_r	clav_elev_r	scapula_abduction_r	scapula_elevation_r	scapula_upward_rot_r	scapula_winging_r	shoulder_elv_r	plane_of_elev_r	axial_rot_r	elbow_flexion_r	pro_sup_r	wrist_flex_r	wrist_dev_r	clav_prot_l	clav_elev_l	scapula_abduction_l	scapula_elevation_l	scapula_upward_rot_l	scapula_winging_l	shoulder_elv_l	plane_of_elev_l	axial_rot_l	elbow_flexion_l	pro_sup_l	wrist_flex_l	wrist_dev_l
      5.68000000	     90.00000000	    -90.00000000	    -90.00000000	     78.85945359	    776.87404912	    -40.51677840	    -45.00000000	      6.15275509	    -45.00000000	     20.72412585	    -45.00000000	  -2272.45892223	  -1518.19858264	    148.53334659	    134.26282004	      0.88104332	    169.04906684	     11.57474618	     12.60788017	     22.13643623	     45.00000000	    -45.00000000	    -45.00000000	      9.53399840	  -3927.65991941	  -2418.29602337	     10.64737209	    -66.88248305	    349.72758778	   -317.86765399	     11.52387973	    -13.31927726
      5.69000000	     90.00000000	    -90.00000000	    -90.00000000	     79.15039326	    776.58339480	    -40.60948054	    -45.00000000	      7.24360357	    -45.00000000	     21.00490470	    -45.00000000	  -2272.61022259	  -1518.46753895	    148.17515327	    134.68370997	      1.03411719	    168.51937346	     11.92087969	     12.49340652	     21.33850597	     45.00000000	    -45.00000000	    -45.00000000	      9.90233212	  -3927.48693364	  -2418.50276917	     10.77746417	    -68.13376360	    349.87271937	   -317.43108744	     11.96336523	    -13.78889419
      5.70000000	     90.00000000	    -90.00000000	    -90.00000000	     79.17507577	    776.35786855	    -40.67769314	    -45.00000000	      6.33392708	    -45.00000000	     20.86335432	    -45.00000000	  -2272.21331298	  -1518.13689905	    148.46680379	    135.37884985	      0.71035163	    168.49108572	     11.27708055	     12.58068137	     21.69116528	     45.00000000	    -45.00000000	    -45.00000000	      9.99360530	  -3927.87630197	  -2418.44636088	     10.46341546	    -67.73292394	    349.82490769	   -317.19301681	     11.32679752	    -13.41452662
      5.71000000	     90.00000000	    -90.00000000	    -90.00000000	     78.96292335	    776.16064664	    -40.71395993	    -45.00000000	      6.91492898	    -45.00000000	     20.84551881	    -45.00000000	  -2272.45773127	  -1518.14387208	    148.21569248	    135.50568426	      0.97138246	    168.40995236	     11.64117460	     12.56095910	     21.43968293	     45.00000000	    -45.00000000	    -45.00000000	     10.08154198	  -3927.72999901	  -2418.36258176	     10.70970479	    -68.12180352	    349.90832878	   -317.13134308	     11.68809136	    -13.71193863
      5.72000000	     90.00000000	    -90.00000000	    -90.00000000	     78.55698859	    775.98576228	    -40.72722951	    -45.00000000	      6.66195078	    -45.00000000	     20.89254625	    -45.00000000	  -2272.19279123	  -1518.06444144	    148.30090462	    136.05467255	      0.94980247	    168.60988911	     11.67963172	     12.32684894	     21.39721211	     45.00000000	    -45.00000000	    -45.00000000	     10.21033967	  -3927.99425355	  -2418.41655923	     10.59014665	    -68.22570459	    349.83069468	   -317.16225412	     11.56080573	    -13.71885530
      5.73000000	     90.00000000	    -90.00000000	    -90.00000000	     77.97156744	    775.81248300	    -40.72203669	    -45.00000000	      6.89928623	    -45.00000000	     20.87599413	    -45.00000000	  -2272.25824351	  -1518.00920817	    148.09773839	    136.27283076	      1.01797107	    168.84123738	     11.70688170	     12.49252333	     21.25830129	     45.00000000	    -45.00000000	    -45.00000000	     10.29360899	  -3927.99980896	  -2418.35591614	     10.72166035	    -68.45560847	    349.93617035	   -317.26272153	     11.69382677	    -13.80300241
      5.74000000	     90.00000000	    -90.00000000	    -90.00000000	     77.22593330	    775.63655524	    -40.70111988	    -45.00000000	      6.72958064	    -45.00000000	     20.88956035	    -45.00000000	  -2271.74919618	  -1517.85122292	    148.40816685	    136.80596543	      0.94924363	    169.15915053	     11.74504985	     12.01675956	     21.15563978	     45.00000000	    -45.00000000	    -45.00000000	     10.77929550	  -3928.36748780	  -2418.49278399	     10.36798622	    -68.51600100	    350.08647381	   -317.39774507	     11.41649425	    -13.88846556
      5.75000000	     90.00000000	    -90.00000000	    -90.00000000	     76.31778750	    775.45113999	    -40.66946587	    -45.00000000	      6.88518655	    -45.00000000	     20.86863518	    -45.00000000	  -2272.18040787	  -1517.88383461	    147.81298481	    136.99326944	      1.14561113	    169.44578657	     11.81982883	     12.61639480	     20.99721841	     45.00000000	    -45.00000000	    -45.00000000	     10.49144431	  -3928.04231367	  -2418.15978741	     10.89471892	    -68.88114251	    350.13089778	   -317.51233620	     11.78397891	    -13.92860046
